<?xml version="1.0" encoding="UTF-8"?>
<svg width="310px" height="90px" viewBox="0 0 310 90" version="1.1" xmlns="http://www.w3.org/2000/svg" xmlns:xlink="http://www.w3.org/1999/xlink">
    <!-- Generator: Sketch 60 (88103) - https://sketch.com -->
    <title>ndb-logo-english</title>
    <desc>Created with Sketch.</desc>
    <g id="ndb-logo-english" stroke="none" stroke-width="1" fill="none" fill-rule="evenodd">
        <polygon id="Path-2" fill="#FFFFFF" points="0 90 89 0 310 0 310 90"></polygon>
        <g transform="translate(100.000000, 12.000000)" fill-rule="nonzero">
            <rect id="Rectangle" fill="#CE0E2D" x="0" y="44.51" width="176.12" height="21.49"></rect>
            <polygon id="Path" fill="#231F20" points="0.76 2.1 0.78 17.13 26.61 2.1"></polygon>
            <polygon id="Path" fill="#231F20" points="5.58 35.56 34.11 35.56 34.11 7.45"></polygon>
            <polygon id="Path" fill="#CE0E2D" points="0.78 21.01 0.8 35.58 36.86 0"></polygon>
            <polygon id="Path" fill="#CE0E2D" points="56.47 7.51 60.84 7.51 60.84 30.03 56.19 30.03 47 14 47 14 47 30 42.6 30 42.6 7.47 47.54 7.47 56.43 23.2 56.49 23.2"></polygon>
            <path d="M69.39,11.39 L73.88,11.39 C75.88,11.39 79.04,11.91 79.05,18.55 C79.05,22.27 77.78,26.11 73.97,26.11 L69.41,26.11 L69.39,11.39 Z M64.82,30 L74.53,30 C81.93,30 83.83,23 83.8200392,18.2 C83.8200392,13.94 82.25,7.48 74.69,7.48 L64.8,7.48 L64.82,30 Z" id="Shape" fill="#CE0E2D"></path>
            <path d="M91.32,20.08 L97.32,20.08 C99.01,20.08 100.7,20.83 100.7,22.81 C100.7,25.1 99.39,26.1 97.1,26.1 L91.33,26.1 L91.32,20.08 Z M86.84,30 L96.33,30 C100.92,30 102.14,29.21 103.42,28 C104.656549,26.7727231 105.3514,25.1021998 105.350002,23.36 C105.350002,21.14 104.63,18.94 101.88,17.9 C102.81,17.44 104.62,16.52 104.62,13.29 C104.62,10.97 103.21,7.53 97.72,7.53 L86.82,7.53 L86.84,30 Z M91.32,11.37 L96.69,11.37 C98.81,11.37 100.13,11.94 100.13,13.79 C100.13,15.64 98.66,16.29 96.82,16.29 L91.32,16.29 L91.32,11.37 Z" id="Shape" fill="#CE0E2D"></path>
            <path d="M124.31,21.56 C123.59,24.99 121.71,27.56 118.87,27.56 C117.21,27.56 114.87,26.47 115.74,22.33 C116.27,19.81 117.54,15.73 121.3,15.73 C125.33,15.73 124.73,19.58 124.31,21.56 Z M114.22,29.39 L114.63,27.46 L114.69,27.46 C115.238764,29.0289958 116.797763,30.0116625 118.45,29.83 C123.73,29.83 126.31,24.83 127.09,21.14 C128.01,16.77 126.39,13.39 122.27,13.39 C120.333617,13.4340414 118.510721,14.3126774 117.27,15.8 L117.21,15.8 L118.86,8 L116.25,8 L111.77,29.4 L114.22,29.39 Z" id="Shape" fill="#CE0E2D"></path>
            <path d="M118.44,30.23 C117.0075,30.3557313 115.617752,29.7028552 114.8,28.52 L114.54,29.78 L111.29,29.78 L115.94,7.64 L119.34,7.64 L117.86,14.7 C119.078041,13.6219486 120.643508,13.0184807 122.27,13 L122.27,13 C123.876459,12.9151053 125.431472,13.5799567 126.48,14.8 C127.68,16.29 128.03,18.57 127.48,21.22 C126.09,27.86 121.91,30.22 118.48,30.22 L118.44,30.23 Z M114.31,27.07 L115,27.07 L115.1,27.31 C115.588327,28.7289944 116.999659,29.6157607 118.49,29.44 L118.49,29.44 C119.58,29.44 125.08,29.03 126.75,21.06 C127.26,18.64 126.96,16.6 125.91,15.3 C125.020069,14.2554443 123.68943,13.692054 122.32,13.78 L122.32,13.78 C120.499763,13.8320227 118.79042,14.6666484 117.63,16.07 L117.51,16.2 L116.8,16.2 L118.43,8.43 L116.62,8.43 L112.25,29 L113.9,29 L114.31,27.07 Z M118.86,27.97 C117.762993,27.9936154 116.713265,27.5238069 116,26.69 C115.18,25.69 115,24.18 115.36,22.26 C116.36,17.67 118.36,15.35 121.36,15.34 L121.36,15.34 C122.462912,15.2507934 123.543836,15.6839037 124.28,16.51 C125.37,17.85 125.1,19.96 124.74,21.64 C123.91,25.64 121.74,27.96 118.92,27.97 L118.86,27.97 Z M121.31,16.13 L121.31,16.13 C118.75,16.13 117,18.25 116.13,22.42 C115.78,24.1 115.94,25.37 116.61,26.19 C117.179024,26.8402744 118.006066,27.2062222 118.87,27.19 L118.87,27.19 C121.29,27.19 123.18,25.06 123.93,21.49 L123.93,21.49 C124.22,20.09 124.51,18.11 123.62,17.01 C123.02905,16.3729495 122.175024,16.0476063 121.31,16.13 Z" id="Shape" fill="#CE0E2D"></path>
            <path d="M139.12,24 C138.68,26.09 135.99,27.67 133.56,27.67 C131.56,27.67 130.95,26.67 131.32,24.96 C131.72,22.96 133.85,22.62 135.16,22.44 C138.48,22.02 139.16,21.78 139.66,21.44 L139.12,24 Z M133.12,18.58 C133.600644,16.6936913 135.36942,15.4272647 137.31,15.58 C139.77,15.58 140.77,16.47 140.42,18.1 C140.07,19.73 139.3,19.88 138.67,19.95 L134.25,20.48 C129.82,21.02 128.8,24.06 128.53,25.37 C127.96,28.04 129.6,29.86 132.44,29.86 C134.733879,29.8472895 136.931251,28.9353081 138.56,27.32 C138.4,28.51 138.56,29.7 140.82,29.7 C141.326196,29.6722934 141.825235,29.567765 142.3,29.39 L142.7,27.49 C142.410583,27.5547844 142.116196,27.594928 141.82,27.61 C141.29,27.61 141.02,27.34 141.15,26.7 L143.04,17.7 C143.88,13.7 139.45,13.36 138.22,13.37 C134.39,13.37 131.62,14.82 130.72,18.55 L133.12,18.58 Z" id="Shape" fill="#CE0E2D"></path>
            <path d="M132.44,30.22 C131.074495,30.2996249 129.74664,29.755241 128.83,28.74 C128.076948,27.7476205 127.829245,26.4610433 128.16,25.26 C128.51,23.55 129.77,20.61 134.22,20.07 L138.63,19.53 C139.17,19.47 139.77,19.31 140.04,17.99 C140.1881,17.544633 140.117697,17.0555176 139.85,16.67 C139.149308,16.084478 138.235166,15.8196672 137.33,15.94 L137.33,15.94 C135.550757,15.7820225 133.924752,16.9525757 133.51,18.69 L133.42,18.95 L130.25,18.95 L130.36,18.47 C131.24,14.83 133.89,12.98 138.24,12.98 L138.24,12.98 C139.02,12.98 141.57,13.11 142.84,14.68 C143.516503,15.5654402 143.735216,16.7183173 143.43,17.79 L141.54,26.79 C141.49727,26.9096323 141.49727,27.0403677 141.54,27.16 C141.54,27.16 141.65,27.23 141.81,27.23 L141.81,27.23 C142.083442,27.218314 142.354915,27.1780957 142.62,27.11 L143.21,26.99 L142.63,29.72 L142.4,29.78 L142.09,29.87 C141.681379,30.0129105 141.252788,30.0905293 140.82,30.1 L140.82,30.1 C139.999852,30.1871184 139.182341,29.9133984 138.58,29.35 C138.310407,29.0257481 138.155698,28.6213943 138.14,28.2 C136.547813,29.5400067 134.531003,30.2701699 132.45,30.2601048 L132.44,30.22 Z M137.33,15.15 C138.469819,15.0046977 139.615564,15.3707505 140.46,16.15 C140.88493,16.7244289 141.0146,17.4654033 140.81,18.15 C140.43,19.93 139.44,20.24 138.72,20.31 L134.31,20.84 C130.31,21.33 129.23,23.92 128.92,25.42 C128.648412,26.389858 128.840358,27.4307944 129.44,28.24 C130.2069,29.0723898 131.31104,29.5103654 132.44,29.43 L132.44,29.43 C134.640199,29.424 136.749335,28.5508821 138.31,27 L139.1,26.29 L139,27.34 C138.855577,27.8341361 138.932164,28.3665998 139.21,28.8 C139.673192,29.1745458 140.268969,29.344252 140.86,29.27 L140.86,29.27 C141.200811,29.255735 141.537706,29.1917249 141.86,29.08 L141.96,29.08 L142.19,27.98 L141.8,27.98 C141.471597,28.0033943 141.150709,27.8743013 140.93,27.63 C140.724273,27.339837 140.661715,26.971845 140.76,26.63 L142.65,17.63 C142.894225,16.7875941 142.735511,15.8796065 142.22,15.17 C141.14,13.84 138.72,13.77 138.22,13.77 L138.22,13.77 C134.42,13.77 132.14,15.21 131.22,18.17 L132.84,18.17 C133.431822,16.242354 135.291468,14.9914707 137.3,15.17 L137.33,15.15 Z M133.55,28.05 C132.70495,28.1298856 131.869492,27.8207294 131.28,27.21 C130.814886,26.5195412 130.686278,25.65603 130.93,24.86 C131.42,22.54 134,22.18 135.11,22.03 C138.21,21.64 139,21.41 139.44,21.11 L140.24,20.55 L139.5,24.06 C139,26.44 136.03,28.06 133.56,28.06 L133.55,28.05 Z M139.11,22.12 C137.830945,22.4536814 136.526508,22.6811216 135.21,22.8 C133.66,23.02 132.02,23.45 131.7,25.02 C131.508743,25.583545 131.578385,26.2029909 131.89,26.71 C132.329621,27.1383461 132.941585,27.3411054 133.55,27.26 L133.55,27.26 C135.93,27.26 138.35,25.69 138.73,23.9 L138.73,23.9 L139.11,22.12 Z" id="Shape" fill="#CE0E2D"></path>
            <path d="M157.32,29.36 L154.71,29.36 L156.71,19.78 C157.28,17.07 156.8,15.71 154.26,15.71 C152.77,15.71 149.97,16.66 149.08,20.89 L147.29,29.37 L144.7,29.37 L148,13.81 L150.45,13.81 L150,16 L150,16 C151.292365,14.4142057 153.196784,13.4510926 155.24,13.35 C157.63,13.35 160.44,14.35 159.51,18.76 L157.32,29.36 Z" id="Path" fill="#CE0E2D"></path>
            <path d="M147.63,29.76 L144.22,29.76 L147.67,13.42 L150.91,13.42 L150.61,14.88 C151.88378,13.7023748 153.545583,13.0333838 155.28,13 C156.774071,12.8928 158.238855,13.4530799 159.28,14.53 C160.145084,15.8067059 160.380711,17.4082346 159.92,18.88 L157.63,29.78 L154.22,29.78 L156.34,19.78 C156.66,18.27 156.61,17.32 156.19,16.78 C155.675794,16.2951298 154.97067,16.0674337 154.27,16.16 C152.53,16.16 150.27,17.44 149.47,21.03 L147.63,29.76 Z M145.19,29 L147,29 L148.72,20.84 C149.57,16.84 152.24,15.35 154.27,15.35 L154.27,15.35 C155.20632,15.2405537 156.139631,15.5775826 156.79,16.26 C157.38,16.99 157.48,18.11 157.1,19.89 L155.19,29 L157,29 L159.16,18.73 C159.563876,17.4859613 159.383777,16.1260252 158.67,15.03 C157.770561,14.1424597 156.529641,13.6898888 155.27,13.79 C153.33718,13.8895916 151.537693,14.8056938 150.32,16.31 L150.2,16.44 L149.48,16.44 L149.94,14.24 L148.3,14.24 L145.19,29 Z" id="Shape" fill="#CE0E2D"></path>
            <polygon id="Path" fill="#CE0E2D" points="174 29.34 170.65 29.34 167.48 21.5 164.9 23.5 163.66 29.38 161.15 29.38 165.62 8 168.14 8 165.54 20.37 173.54 13.79 176.85 13.79 169.7 19.59"></polygon>
            <path d="M160.64,29.74 L165.31,7.61 L168.63,7.61 L166.15,19.37 L173.44,13.37 L178,13.37 L170.22,19.68 L174.57,29.68 L170.37,29.68 L167.29,22.07 L165.23,23.64 L163.96,29.64 L160.64,29.74 Z M165.94,8.39 L161.61,29 L163.32,29 L164.53,23.28 L167.63,20.91 L170.89,29 L173.38,29 L169.27,19.53 L175.79,14.23 L173.71,14.23 L164.93,21.42 L167.66,8.42 L165.94,8.39 Z" id="Shape" fill="#CE0E2D"></path>
            <polygon id="Path" fill="#FFFFFF" points="7.2 50 7.2 59.81 5.84 59.81 5.84 50 3.43 50 3.43 48.81 9.61 48.81 9.61 50"></polygon>
            <path d="M11.1,48.81 L12.43,48.81 L12.43,52.27 C12.7831398,52.0622879 13.1915511,51.9680391 13.6,52 L14,52 C14.6811656,51.945164 15.356535,52.1607074 15.88,52.6 C16.3377001,53.1298828 16.5613592,53.8225043 16.5,54.52 L16.5,59.86 L15.18,59.86 L15.18,54.15 C15.1950341,53.8767819 15.0974531,53.6093376 14.91,53.41 C14.7098964,53.2163025 14.4380826,53.1148253 14.16,53.13 L13.44,53.13 C13.1623678,53.1136089 12.8894152,53.2069874 12.68,53.39 C12.5237013,53.5347026 12.4333771,53.7370289 12.43,53.95 L12.43,59.81 L11.1,59.81 L11.1,48.81 Z" id="Path" fill="#FFFFFF"></path>
            <path d="M19.42,59.22 C18.9477506,58.6975461 18.7156728,58.0013128 18.78,57.3 L18.78,54.47 C18.7122043,53.7723687 18.9204149,53.0759401 19.36,52.53 C19.9116799,52.1126078 20.6025252,51.9228938 21.29,52 L21.71,52 C22.3329531,51.9565064 22.9446483,52.182251 23.39,52.62 C23.8052227,53.1142635 24.0225491,53.744866 24,54.39 L24,56.39 L20.11,56.39 L20.11,57.57 C20.0972215,57.8544937 20.2063453,58.1309405 20.41,58.33 C20.6628019,58.5191148 20.9750127,58.6113589 21.29,58.59 L23.46,58.59 L23.46,59.77 L21.46,59.77 C20.734955,59.850717 20.0062083,59.6542412 19.42,59.22 Z M22.66,55.22 L22.66,54.08 C22.6713002,53.8265011 22.5762424,53.5797971 22.3977655,53.3994215 C22.2192886,53.2190459 21.9736042,53.1213829 21.72,53.13 L21.13,53.13 C20.8414074,53.0978572 20.5530946,53.1927449 20.34,53.39 C20.1739195,53.6071685 20.0922041,53.8771847 20.11,54.15 L20.11,55.25 L22.66,55.22 Z" id="Shape" fill="#FFFFFF"></path>
            <path d="M32,50.12 C31.9010801,50.2047614 31.8459176,50.3297964 31.85,50.46 L31.85,52 L33.74,52 L33.74,53.18 L31.87,53.18 L31.87,59.86 L30.54,59.86 L30.54,53.13 L29.54,53.13 L29.54,52 L30.54,52 L30.54,50.54 C30.5160591,50.071995 30.6819044,49.6141177 31,49.27 C31.3075183,48.9582887 31.7325327,48.791189 32.17,48.81 L33.93,48.81 L33.93,50 L32.41,50 C32.2628459,49.984252 32.1154411,50.0273949 32,50.12 L32,50.12 Z" id="Path" fill="#FFFFFF"></path>
            <path d="M39,59.45 C38.630782,59.696797 38.1939275,59.8226111 37.75,59.81 L37.53,59.81 C36.8475508,59.8638634 36.1706082,59.6525427 35.64,59.22 C35.1750951,58.693288 34.9441033,58.0003125 35,57.3 L35,52 L36.33,52 L36.33,57.66 C36.3148253,57.9380826 36.4163025,58.2098964 36.61,58.41 C36.8093376,58.5974531 37.0767819,58.6950341 37.35,58.68 L37.88,58.68 C38.1537264,58.7032202 38.424951,58.612812 38.63,58.43 C38.7836613,58.2813306 38.8793756,58.0828121 38.9,57.87 L38.9,52 L40.23,52 L40.23,59.86 L39,59.86 L39,59.45 Z" id="Path" fill="#FFFFFF"></path>
            <path d="M43.25,59.29 C42.94439,58.9049222 42.7913138,58.4207744 42.82,57.93 L42.82,53.13 L41.82,53.13 L41.82,52 L42.82,52 L42.82,50.07 L44.15,50.07 L44.15,52 L46,52 L46,53.18 L44.15,53.18 L44.15,58 C44.1272878,58.1828246 44.1943391,58.3653533 44.33,58.49 C44.4839092,58.5992544 44.6722136,58.6489952 44.86,58.63 L46,58.63 L46,59.81 L44.5,59.81 C44.023292,59.8520027 43.5562638,59.6577189 43.25,59.29 L43.25,59.29 Z" id="Path" fill="#FFFFFF"></path>
            <path d="M51.51,59.45 C51.1413532,59.6980244 50.7040967,59.8239543 50.26,59.81 L50,59.81 C49.3176681,59.8628235 48.6411033,59.6516207 48.11,59.22 C47.6558947,58.6885439 47.4358979,57.9960949 47.5,57.3 L47.5,52 L48.83,52 L48.83,57.66 C48.8086888,57.9311904 48.9071806,58.1981159 49.0995324,58.3904676 C49.2918841,58.5828194 49.5588096,58.6813112 49.83,58.66 L50.37,58.66 C50.6403581,58.6804302 50.9074241,58.5902052 51.11,58.41 C51.2636613,58.2613306 51.3593756,58.0628121 51.38,57.85 L51.38,52 L52.71,52 L52.71,59.86 L51.51,59.86 L51.51,59.45 Z" id="Path" fill="#FFFFFF"></path>
            <path d="M55.27,52 L56.52,52 L56.52,52.43 C56.8722043,52.142454 57.3154341,51.989983 57.77,52 L58.91,52 L58.91,53.26 L57.62,53.26 C57.320753,53.2394585 57.0312887,53.3710332 56.85,53.61 C56.6956906,53.8000138 56.6078793,54.0353481 56.6,54.28 L56.6,59.86 L55.27,59.86 L55.27,52 Z" id="Path" fill="#FFFFFF"></path>
            <path d="M60.73,59.22 C60.2533485,58.7001261 60.0206032,58.00189 60.09,57.3 L60.09,54.47 C59.9650913,53.7785501 60.1892221,53.069983 60.6890547,52.5761484 C61.1888872,52.0823139 61.9001084,51.8667533 62.59,52 L63,52 C63.6229531,51.9565064 64.2346483,52.182251 64.68,52.62 C65.092784,53.1330419 65.2963895,53.783151 65.25,54.44 L65.25,56.44 L61.42,56.44 L61.42,57.62 C61.4072215,57.9044937 61.5163453,58.1809405 61.72,58.38 C61.9689064,58.5692398 62.2780737,58.6616346 62.59,58.64 L64.77,58.64 L64.77,59.82 L62.77,59.82 C62.0384591,59.8865242 61.3090372,59.6719883 60.73,59.22 L60.73,59.22 Z M63.97,55.22 L63.97,54.08 C63.9790964,53.8255419 63.8811696,53.5789113 63.7,53.4 C63.5248728,53.2193387 63.2814585,53.1212464 63.03,53.13 L62.44,53.13 C62.1514074,53.0978572 61.8630946,53.1927449 61.65,53.39 C61.4796079,53.6049363 61.3973783,53.8766517 61.42,54.15 L61.42,55.25 L63.97,55.22 Z" id="Shape" fill="#FFFFFF"></path>
            <path d="M71.53,50.22 L71.53,48.81 L73,48.81 L73,50.22 L71.53,50.22 Z M71.61,59.81 L71.61,52 L72.94,52 L72.94,59.86 L71.61,59.81 Z" id="Shape" fill="#FFFFFF"></path>
            <path d="M79,59.33 C78.4912,59.6826572 77.877647,59.8519132 77.26,59.81 L75.26,59.81 L75.26,58.63 L77.43,58.63 C77.6609736,58.6470818 77.8907152,58.5834611 78.08,58.45 C78.2287183,58.3192305 78.3097096,58.1277967 78.3,57.93 L78.3,57.09 C78.3298772,56.9003636 78.2687388,56.7077263 78.1349731,56.5700262 C78.0012073,56.4323261 77.8104225,56.3656309 77.62,56.39 L77.36,56.39 C76.7730553,56.4356819 76.1896893,56.2649406 75.72,55.91 C75.3279058,55.5057318 75.1308405,54.9510294 75.18,54.39 L75.18,53.93 C75.1276599,53.3618058 75.3463148,52.8021976 75.77,52.42 C76.2811083,52.1023707 76.8798984,51.9552995 77.48,52 L79.26,52 L79.26,53.18 L77.32,53.18 C77.0991165,53.169803 76.8810821,53.2331033 76.7,53.36 C76.5383294,53.4869361 76.4487489,53.6847598 76.46,53.89 L76.46,54.46 C76.4446599,54.6595773 76.5221279,54.8550917 76.67,54.99 C76.8252867,55.1067058 77.0158627,55.1667019 77.21,55.16 L77.43,55.16 C78.0087952,55.1202439 78.5809772,55.3026269 79.03,55.67 C79.4190372,56.07671 79.6187037,56.6285154 79.58,57.19 L79.58,57.9 C79.6140777,58.4400478 79.4006438,58.9662728 79,59.33 L79,59.33 Z" id="Path" fill="#FFFFFF"></path>
            <path d="M90.52,59.22 C89.948669,59.6561143 89.2365598,59.8661865 88.52,59.81 L85.76,59.81 L85.76,48.81 L87.09,48.81 L87.09,52.27 C87.4431398,52.0622879 87.8515511,51.9680391 88.26,52 L88.51,52 C89.2263608,51.945702 89.937811,52.1555798 90.51,52.59 C90.9849321,53.1148923 91.2172024,53.8153325 91.15,54.52 L91.15,57.3 C91.2220822,58.0004147 90.9930383,58.698453 90.52,59.22 Z M87.34,53.41 C87.1819815,53.5659076 87.092101,53.7780257 87.09,54 L87.09,58.63 L88.67,58.63 C88.9849873,58.6513589 89.2971981,58.5591148 89.55,58.37 C89.7499914,58.1692046 89.8553924,57.8929813 89.84,57.61 L89.84,54.15 C89.8525337,53.8704352 89.7473505,53.5984095 89.55,53.4 C89.3007506,53.2031232 88.986776,53.1067901 88.67,53.13 L88.11,53.13 C87.8251231,53.1090767 87.5448965,53.2109772 87.34,53.41 L87.34,53.41 Z" id="Shape" fill="#FFFFFF"></path>
            <path d="M97.69,59.69 C97.5295038,59.604542 97.3895838,59.4850982 97.28,59.34 C97.0512146,59.6600675 96.6724238,59.8380993 96.28,59.81 L95.24,59.81 C94.6243809,59.8631768 94.0102115,59.6927714 93.51,59.33 C93.1140087,58.8810178 92.9284661,58.2843711 93,57.69 L93,57.38 C93,55.75 93.76,54.94 95.29,54.94 L96.92,54.94 L96.92,54.15 C96.9299132,53.868937 96.8210151,53.5966917 96.62,53.4 C96.3707506,53.2031232 96.056776,53.1067901 95.74,53.13 L93.6,53.13 L93.6,52 L95.6,52 C96.3179362,51.945695 97.0305147,52.1594685 97.6,52.6 C98.0758646,53.1208038 98.3116341,53.8172305 98.25,54.52 L98.25,58.29 C98.2408587,58.4336454 98.3095989,58.5711258 98.43,58.65 C98.6178472,58.7356528 98.8239849,58.7734448 99.03,58.76 L99.03,59.86 L98.17,59.86 C97.9980111,59.8457024 97.8326499,59.787137 97.69,59.69 L97.69,59.69 Z M96.76,58.41 C96.8572124,58.2400817 96.9024139,58.0453673 96.89,57.85 L96.89,56.12 L95.24,56.12 C94.9887624,56.1124935 94.7458327,56.2103906 94.57,56.39 C94.3893387,56.5651272 94.2912464,56.8085415 94.3,57.06 L94.3,57.85 C94.2591496,58.0687199 94.3295452,58.2934512 94.4878768,58.4497786 C94.6462084,58.606106 94.8718182,58.6736332 95.09,58.63 L96.17,58.63 C96.48,58.63 96.68,58.56 96.76,58.41 L96.76,58.41 Z" id="Shape" fill="#FFFFFF"></path>
            <path d="M100.88,52 L102.13,52 L102.13,52.38 C102.49238,52.1169755 102.932543,51.983166 103.38,52 L103.79,52 C104.473908,51.9478719 105.151388,52.1629449 105.68,52.6 C106.134105,53.1314561 106.354102,53.8239051 106.29,54.52 L106.29,59.86 L105,59.86 L105,54.15 C105.015034,53.8767819 104.917453,53.6093376 104.73,53.41 C104.532315,53.2189045 104.26467,53.1176335 103.99,53.13 L103.27,53.13 C102.985123,53.1090767 102.704897,53.2109772 102.5,53.41 C102.341982,53.5659076 102.252101,53.7780257 102.25,54 L102.25,59.81 L100.92,59.81 L100.88,52 Z" id="Path" fill="#FFFFFF"></path>
            <polygon id="Path" fill="#FFFFFF" points="112.63 59.81 110.49 55.93 110.05 56.45 110.05 59.81 108.72 59.81 108.72 48.81 110.05 48.81 110.05 54.69 112.4 52 114.07 52 111.43 55 114.18 59.82"></polygon>
            <path d="M115.9,50.22 L115.9,48.81 L117.39,48.81 L117.39,50.22 L115.9,50.22 Z M115.98,59.81 L115.98,52 L117.31,52 L117.31,59.86 L115.98,59.81 Z" id="Shape" fill="#FFFFFF"></path>
            <path d="M119.82,52 L121.07,52 L121.07,52.38 C121.43238,52.1169755 121.872543,51.983166 122.32,52 L122.73,52 C123.411166,51.945164 124.086535,52.1607074 124.61,52.6 C125.071837,53.1275467 125.296081,53.8219798 125.23,54.52 L125.23,59.86 L123.9,59.86 L123.9,54.15 C123.915034,53.8767819 123.817453,53.6093376 123.63,53.41 C123.432315,53.2189045 123.16467,53.1176335 122.89,53.13 L122.17,53.13 C121.885123,53.1090767 121.604897,53.2109772 121.4,53.41 C121.241982,53.5659076 121.152101,53.7780257 121.15,54 L121.15,59.81 L119.82,59.81 L119.82,52 Z" id="Path" fill="#FFFFFF"></path>
            <path d="M132.72,62 C132.133454,62.399242 131.426726,62.5829913 130.72,62.52 L127.56,62.52 L127.56,61.31 L130.88,61.31 C131.17946,61.3283023 131.477022,61.2512862 131.73,61.09 C131.90661,60.9536481 132.010027,60.7431212 132.01,60.52 L132.01,60 C132.013159,59.7733723 131.90942,59.5584861 131.73,59.42 C131.475859,59.2622167 131.17838,59.188722 130.88,59.21 L128.27,59.21 L128.27,57.06 C127.930088,56.8788518 127.659433,56.5906225 127.5,56.24 C127.315005,55.8043373 127.229595,55.3328728 127.25,54.86 L127.25,54.47 C127.188366,53.7672305 127.424135,53.0708038 127.9,52.55 C128.467684,52.1059761 129.181646,51.8917875 129.9,51.95 L133.09,51.95 L133.09,54.86 C133.13129,55.5372544 132.900964,56.2030387 132.45,56.71 C132.001521,57.1605693 131.385293,57.4034359 130.75,57.38 L129.59,57.38 L129.59,58.05 L130.71,58.05 C131.417983,57.989086 132.125095,58.1764706 132.71,58.58 C133.159878,58.9810084 133.396613,59.569146 133.35,60.17 L133.35,60.36 C133.415406,60.9760984 133.18106,61.5861415 132.72,62 Z M131.51,55.92 C131.668407,55.7336723 131.766102,55.5033923 131.79,55.26 L131.79,53.13 L129.79,53.13 C129.476248,53.1063622 129.165242,53.2028812 128.92,53.4 C128.718985,53.5966917 128.610087,53.868937 128.62,54.15 L128.62,55.15 C128.610087,55.431063 128.718985,55.7033083 128.92,55.9 C129.165242,56.0971188 129.476248,56.1936378 129.79,56.17 L130.79,56.17 C131.06197,56.1901202 131.327901,56.0830092 131.51,55.88 L131.51,55.92 Z" id="Shape" fill="#FFFFFF"></path>
            <path d="M144.18,59.22 C143.608669,59.6561143 142.89656,59.8661865 142.18,59.81 L142,59.81 C141.28344,59.8661865 140.571331,59.6561143 140,59.22 C139.516107,58.7034986 139.275949,58.0048573 139.34,57.3 L139.34,54.47 C139.275949,53.7651427 139.516107,53.0665014 140,52.55 C140.567684,52.1059761 141.281646,51.8917875 142,51.95 L142.2,51.95 C142.918354,51.8917875 143.632316,52.1059761 144.2,52.55 C144.675865,53.0708038 144.911634,53.7672305 144.85,54.47 L144.85,57.3 C144.906272,58.0056995 144.66311,58.7025225 144.18,59.22 Z M143.18,53.4 C142.93382,53.2046514 142.623524,53.1083526 142.31,53.13 L141.79,53.13 C141.473224,53.1067901 141.159249,53.2031232 140.91,53.4 C140.708985,53.5966917 140.600087,53.868937 140.61,54.15 L140.61,57.61 C140.597222,57.8944937 140.706345,58.1709405 140.91,58.37 C141.162802,58.5591148 141.475013,58.6513589 141.79,58.63 L142.31,58.63 C142.621723,58.649825 142.930271,58.5576153 143.18,58.37 C143.383655,58.1709405 143.492778,57.8944937 143.48,57.61 L143.48,54.15 C143.495175,53.8719174 143.393698,53.6001036 143.2,53.4 L143.18,53.4 Z" id="Shape" fill="#FFFFFF"></path>
            <path d="M147.18,52 L148.43,52 L148.43,52.38 C148.79238,52.1169755 149.232543,51.983166 149.68,52 L150.09,52 C150.774154,51.9457401 151.452417,52.1610616 151.98,52.6 C152.434105,53.1314561 152.654102,53.8239051 152.59,54.52 L152.59,59.86 L151.26,59.86 L151.26,54.15 C151.275034,53.8767819 151.177453,53.6093376 150.99,53.41 C150.792315,53.2189045 150.52467,53.1176335 150.25,53.13 L149.53,53.13 C149.245123,53.1090767 148.964897,53.2109772 148.76,53.41 C148.601982,53.5659076 148.512101,53.7780257 148.51,54 L148.51,59.81 L147.18,59.81 L147.18,52 Z" id="Path" fill="#FFFFFF"></path>
            <path d="M163,59.45 C162.630782,59.696797 162.193928,59.8226111 161.75,59.81 L161.53,59.81 C160.847551,59.8638634 160.170608,59.6525427 159.64,59.22 C159.175095,58.693288 158.944103,58.0003125 159,57.3 L159,52 L160.33,52 L160.33,57.66 C160.314825,57.9380826 160.416302,58.2098964 160.61,58.41 C160.809338,58.5974531 161.076782,58.6950341 161.35,58.68 L161.88,58.68 C162.153726,58.7032202 162.424951,58.612812 162.63,58.43 C162.783661,58.2813306 162.879376,58.0828121 162.9,57.87 L162.9,52 L164.23,52 L164.23,59.86 L163,59.86 L163,59.45 Z" id="Path" fill="#FFFFFF"></path>
            <path d="M170.27,59.33 C169.7612,59.6826572 169.147647,59.8519132 168.53,59.81 L166.53,59.81 L166.53,58.63 L168.71,58.63 C168.937619,58.6447466 169.163439,58.5812347 169.35,58.45 C169.498718,58.3192305 169.57971,58.1277967 169.57,57.93 L169.57,57.09 C169.599877,56.9003636 169.538739,56.7077263 169.404973,56.5700262 C169.271207,56.4323261 169.080423,56.3656309 168.89,56.39 L168.63,56.39 C168.043055,56.4356819 167.459689,56.2649406 166.99,55.91 C166.597906,55.5057318 166.40084,54.9510294 166.45,54.39 L166.45,53.93 C166.396875,53.3596579 166.619916,52.7983384 167.05,52.42 C167.564794,52.0729927 168.180622,51.9075991 168.8,51.95 L170.58,51.95 L170.58,53.13 L168.64,53.13 C168.419117,53.119803 168.201082,53.1831033 168.02,53.31 C167.858329,53.4369361 167.768749,53.6347598 167.78,53.84 L167.78,54.41 C167.76466,54.6095773 167.842128,54.8050917 167.99,54.94 C168.145287,55.0567058 168.335863,55.1167019 168.53,55.11 L168.75,55.11 C169.328795,55.0702439 169.900977,55.2526269 170.35,55.62 C170.739037,56.02671 170.938704,56.5785154 170.9,57.14 L170.9,57.85 C170.937588,58.4154962 170.703638,58.965093 170.27,59.33 L170.27,59.33 Z" id="Path" fill="#FFFFFF"></path>
        </g>
    </g>
</svg>